<svg width="16" height="16" viewBox="0 0 16 16" fill="none" xmlns="http://www.w3.org/2000/svg">
<path d="M10.2139 15.3939C10.2139 15.3939 10.73 15.2235 11.1226 14.9888C11.5151 14.7542 11.3269 14.2048 11.3269 14.2048L11.2541 13.8779L10.647 14.2048L10.2119 15.3919L10.2139 15.3939Z" fill="url(#paint0_linear_137_78)"/>
<path d="M4.62402 4.02993C4.62402 4.02993 5.59539 3.1095 6.34006 2.88491C6.34006 2.88491 6.59302 2.47584 7.71212 1.72787C7.91854 1.58951 8.27468 1.0942 7.83153 0.683122C7.83153 0.683122 7.30537 0.977894 7.69794 1.51732C7.72222 1.5514 7.81735 1.63964 7.81735 1.63964L7.6676 1.80006L7.39036 1.95045L7.29119 1.80407C7.29119 1.80407 6.60922 0.955838 7.79913 0.0253906C7.79913 0.0253906 9.11653 0.809454 8.28683 1.92037C7.89018 2.45177 7.03015 2.49789 6.80349 3.22982C6.80349 3.23182 6.15795 3.23985 4.62402 4.03193V4.02993Z" fill="url(#paint1_linear_137_78)"/>
<path d="M7.83004 0.681168C7.83004 0.681168 7.30388 0.975944 7.69648 1.51536C7.72076 1.54945 7.81586 1.63768 7.81586 1.63768C7.81586 1.63768 7.65803 1.75399 7.61351 1.78808C7.55078 1.8362 7.38685 1.9485 7.38685 1.9485L7.28973 1.80212C7.28973 1.80212 6.60777 0.953884 7.79768 0.0234375" fill="url(#paint2_linear_137_78)"/>
<path d="M10.9483 3.97969C10.2441 3.04922 9.27677 2.9269 9.27677 2.9269C9.02381 2.41757 8.23661 1.98242 8.23661 1.98242C8.23661 1.98242 8.17589 2.05862 8.05652 2.14886C7.94523 2.23108 7.82178 2.30527 7.82178 2.30527C8.41673 2.52786 8.86598 3.21366 8.86598 3.21366C8.86598 3.21366 9.86162 3.30189 10.9483 3.98169V3.97969Z" fill="#034F62"/>
<path d="M9.81132 6.73736C9.81132 7.78612 8.94518 8.63636 7.87872 8.63636C7.43756 8.63636 7.03283 8.48996 6.70703 8.24731L9.05648 10.4331C10.5439 9.97588 11.6528 8.67043 11.8006 7.09629C11.1065 5.93927 9.89025 5.11508 8.47368 4.93262C9.25078 5.18124 9.81132 5.89513 9.81132 6.73736Z" fill="url(#paint3_linear_137_78)"/>
<path d="M7.91255 10.6057C7.93279 10.6057 7.95303 10.6057 7.97327 10.6077C8.3517 10.5997 8.71595 10.5375 9.06199 10.4333L6.71254 8.2475C6.60529 8.16729 6.50612 8.07504 6.4191 7.97478L6.405 7.96484L5.10156 9.47541C5.80175 10.1572 6.76514 10.5937 7.82352 10.6077C7.85389 10.6057 7.88423 10.6057 7.91663 10.6057H7.91255Z" fill="url(#paint4_linear_137_78)"/>
<path d="M5.10653 9.48265L6.4118 7.96867H6.41585C6.12443 7.6398 5.94838 7.20664 5.94838 6.73541C5.94838 5.89321 6.50892 5.17932 7.28194 4.93066C5.86541 5.11313 4.65122 5.93732 3.95508 7.09437C4.0421 8.02482 4.46706 8.86102 5.10451 9.48265H5.10653Z" fill="url(#paint5_linear_137_78)"/>
<path d="M3.93848 6.73692C3.93848 6.85723 3.94657 6.97558 3.95669 7.09588C4.65081 5.93883 5.86702 5.11468 7.28355 4.93218C7.47378 4.87202 7.67212 4.83993 7.88053 4.83993C8.08897 4.83993 8.28933 4.87402 8.47754 4.93218C9.89408 5.11468 11.1083 5.93883 11.8044 7.09588C11.8145 6.97958 11.8226 6.85927 11.8226 6.73692C11.8226 4.60331 10.054 2.86475 7.88053 2.86475C5.70713 2.86475 3.93848 4.60131 3.93848 6.73692Z" fill="url(#paint6_linear_137_78)"/>
<path d="M11.8229 6.73728C11.8229 6.85759 11.8147 6.9759 11.8046 7.09621C12.2013 7.75594 12.4299 8.52398 12.4299 9.34613C12.4299 10.6255 11.8755 11.7805 10.9891 12.5947C11.1631 12.9897 11.2582 13.4248 11.2582 13.8821C11.2582 14.2891 11.1813 14.6782 11.0417 15.0371C13.1018 13.9382 14.5001 11.7986 14.5001 9.34813C14.5001 5.77674 11.5294 2.8711 7.88281 2.8711C10.0562 2.86909 11.8249 4.60567 11.8249 6.74129L11.8229 6.73728Z" fill="url(#paint7_linear_137_78)"/>
<path d="M10.9844 12.5923C10.4724 13.0635 9.8471 13.4185 9.15499 13.615C8.74824 13.7313 8.32125 13.7954 7.87807 13.7954C7.43488 13.7954 7.04837 13.7373 6.65983 13.633C5.96571 13.4425 5.33435 13.0976 4.81833 12.6344C4.65642 13.0194 4.56738 13.4385 4.56738 13.8797C4.56738 14.3208 4.65036 14.7058 4.79809 15.0768C5.71884 15.5521 6.76709 15.8228 7.87807 15.8228C8.66325 15.8228 9.41401 15.6884 10.1122 15.4418C11.041 15.0347 11.2515 14.5915 11.2556 13.8917V13.8797C11.2576 13.4225 11.1604 12.9873 10.9864 12.5923H10.9844ZM7.78095 15.1189C7.82345 15.1229 7.86392 15.1229 7.90642 15.127C7.86594 15.125 7.82345 15.125 7.78095 15.1189Z" fill="url(#paint8_linear_137_78)"/>
<path d="M4.80053 15.0754C4.65079 14.7044 4.56983 14.3014 4.56983 13.8783C4.56983 13.4551 4.65887 13.018 4.82077 12.633C3.90607 11.8188 3.33135 10.6437 3.33135 9.34432C3.33135 8.52217 3.56003 7.75614 3.95666 7.0944C3.94654 6.97809 3.93845 6.85778 3.93845 6.73547C3.93845 4.60186 5.70711 2.86328 7.88051 2.86328C4.22985 2.86328 1.26318 5.77093 1.26318 9.34031C1.26318 11.8248 2.69795 13.9866 4.80053 15.0734V15.0754Z" fill="url(#paint9_linear_137_78)"/>
<defs>
<linearGradient id="paint0_linear_137_78" x1="12.9742" y1="-3.50983" x2="11.4617" y2="9.52366" gradientUnits="userSpaceOnUse">
<stop stop-color="#998379"/>
<stop offset="0.15" stop-color="#A18873"/>
<stop offset="0.49" stop-color="#B39067"/>
<stop offset="0.78" stop-color="#BD945D"/>
<stop offset="1" stop-color="#C29757"/>
</linearGradient>
<linearGradient id="paint1_linear_137_78" x1="7.3944" y1="-4.15761" x2="5.88385" y2="8.87784" gradientUnits="userSpaceOnUse">
<stop stop-color="#998379"/>
<stop offset="1" stop-color="#C1976B"/>
</linearGradient>
<linearGradient id="paint2_linear_137_78" x1="8.10121" y1="-4.07534" x2="6.59067" y2="8.95811" gradientUnits="userSpaceOnUse">
<stop stop-color="#998379"/>
<stop offset="0.34" stop-color="#A28876"/>
<stop offset="0.9" stop-color="#BC956D"/>
<stop offset="1" stop-color="#C1976B"/>
</linearGradient>
<linearGradient id="paint3_linear_137_78" x1="10.6066" y1="-3.78433" x2="9.09605" y2="9.24911" gradientUnits="userSpaceOnUse">
<stop stop-color="#11324C"/>
<stop offset="0.14" stop-color="#17344D"/>
<stop offset="0.28" stop-color="#253A50"/>
<stop offset="0.44" stop-color="#3A4354"/>
<stop offset="0.59" stop-color="#52515B"/>
<stop offset="0.75" stop-color="#746561"/>
<stop offset="0.91" stop-color="#9F8168"/>
<stop offset="1" stop-color="#C1976B"/>
</linearGradient>
<linearGradient id="paint4_linear_137_78" x1="8.73215" y1="-4.0007" x2="7.2216" y2="9.03274" gradientUnits="userSpaceOnUse">
<stop stop-color="#998379"/>
<stop offset="1" stop-color="#C1976B"/>
</linearGradient>
<linearGradient id="paint5_linear_137_78" x1="6.82866" y1="-4.22142" x2="5.31811" y2="8.81206" gradientUnits="userSpaceOnUse">
<stop stop-color="#998379"/>
<stop offset="1" stop-color="#C1976B"/>
</linearGradient>
<linearGradient id="paint6_linear_137_78" x1="9.14129" y1="-3.95519" x2="7.63074" y2="9.07825" gradientUnits="userSpaceOnUse">
<stop stop-color="#998379"/>
<stop offset="1" stop-color="#C1976B"/>
</linearGradient>
<linearGradient id="paint7_linear_137_78" x1="12.3551" y1="-3.58186" x2="10.8445" y2="9.45158" gradientUnits="userSpaceOnUse">
<stop stop-color="#73675A"/>
<stop offset="0.6" stop-color="#9D8065"/>
<stop offset="1" stop-color="#C1976B"/>
</linearGradient>
<linearGradient id="paint8_linear_137_78" x1="10.0009" y1="-3.85498" x2="8.49034" y2="9.17846" gradientUnits="userSpaceOnUse">
<stop stop-color="#998379"/>
<stop offset="0.15" stop-color="#A18873"/>
<stop offset="0.49" stop-color="#B39067"/>
<stop offset="0.78" stop-color="#BD945D"/>
<stop offset="1" stop-color="#C29757"/>
</linearGradient>
<linearGradient id="paint9_linear_137_78" x1="5.782" y1="-4.34366" x2="4.27145" y2="8.68978" gradientUnits="userSpaceOnUse">
<stop stop-color="#F2F2F2"/>
<stop offset="0.26" stop-color="#E3D9C8"/>
<stop offset="0.84" stop-color="#CAA574"/>
<stop offset="1" stop-color="#C1985E"/>
</linearGradient>
</defs>
</svg>
